<?xml version="1.0" encoding="utf-8"?>
<!-- Generator: Adobe Illustrator 18.1.1, SVG Export Plug-In . SVG Version: 6.00 Build 0)  -->
<svg version="1.1" id="Layer_1" xmlns="http://www.w3.org/2000/svg" xmlns:xlink="http://www.w3.org/1999/xlink" x="0px" y="0px"
	 viewBox="0 0 1024 1024" enable-background="new 0 0 1024 1024" xml:space="preserve">
<path d="M264,862h156V202H218v166H68V52h888v316H806V202H604v660h156v150H264V862z"/>
<path d="M787.4,28C760.2,5.8,703,10.8,671.6,18.4c-55,71.8-103.6,148.4-163,216.6C454.4,297.2,386.2,360,302,374.8c11.4,191.2,29.8,381.6,6.6,572.8c103.2-61.4,268.4,109.8,419.8-25C637.4,623.6,830.8,324.8,787.4,28z"/>
<path fill="#FFFFFF" d="M768.2,37.8c-12.6-9.4-58.4-10.6-81,0.2c-51.4,70.6-101,143-154.2,212c-50.6,65.6-109.8,126-181,170.2c14.8,147.2,30.4,293.6,28,441.8c92-2,184,61.2,278.6,51c-15-77-9.4-149,0.2-226.2c8.8-70.8,21.2-141.2,34.6-211.6C720.6,329,775.8,187.2,768.2,37.8z"/>
<path fill="#AAAAAA" d="M769,38c-1.8-1.2-5.7-3.1-8-4c-3.2,61.4-20.4,180.6-44.6,260C643,535,613.2,822.6,626.2,885.6C554,910,450.8,835.2,380,843c0.2,16.2,0.2,2.8,0,19c94-2,159,111.2,286.2,50.6c-15-77-17.6-149-8-226.2c8.8-70.8,21.2-141.2,34.6-211.6C720.2,329.2,776.6,187.4,769,38z"/>
<path fill="#AAAAAA" d="M698.4,69c-52.6,84.2-90.4,158-179.6,276.8c-33.6,44.8-75.6,76.4-113.4,98c18,6.8,64.6,0,106-37.8C591.8,332.6,655,145.8,698.4,69z"/>
<path fill="#AAAAAA" d="M578.6,401.4c-35.2,49.8-96.2,121.2-164,92.8c18.6,43,105.4-4.6,74.8,63.6l0,0C459,632,432.2,723.6,437.8,774.6C443.4,620,555.6,508.6,619,376c38-79.6,51.2-171.4,94.4-248C661.4,211.2,647.4,293,578.6,401.4z"/>
</svg>
